<svg width="320" height="320" viewBox="0 0 320 320" fill="none" xmlns="http://www.w3.org/2000/svg">
<circle cx="160" cy="160" r="160" fill="#F27A1A"/>
<g filter="url(#filter0_d_1_6)">
<path d="M22.0682 191V121.182H36.8295V149.989H66.7955V121.182H81.5227V191H66.7955V162.159H36.8295V191H22.0682ZM93.6932 191V121.182H121.239C126.511 121.182 131.011 122.125 134.739 124.011C138.489 125.875 141.341 128.523 143.295 131.955C145.273 135.364 146.261 139.375 146.261 143.989C146.261 148.625 145.261 152.614 143.261 155.955C141.261 159.273 138.364 161.818 134.568 163.591C130.795 165.364 126.227 166.25 120.864 166.25H102.42V154.386H118.477C121.295 154.386 123.636 154 125.5 153.227C127.364 152.455 128.75 151.295 129.659 149.75C130.591 148.205 131.057 146.284 131.057 143.989C131.057 141.67 130.591 139.716 129.659 138.125C128.75 136.534 127.352 135.33 125.466 134.511C123.602 133.67 121.25 133.25 118.409 133.25H108.455V191H93.6932ZM131.398 159.227L148.75 191H132.455L115.477 159.227H131.398ZM170.943 160.727V191H156.42V138.636H170.261V147.875H170.875C172.034 144.83 173.977 142.42 176.705 140.648C179.432 138.852 182.739 137.955 186.625 137.955C190.261 137.955 193.432 138.75 196.136 140.341C198.841 141.932 200.943 144.205 202.443 147.159C203.943 150.091 204.693 153.591 204.693 157.659V191H190.17V160.25C190.193 157.045 189.375 154.545 187.716 152.75C186.057 150.932 183.773 150.023 180.864 150.023C178.909 150.023 177.182 150.443 175.682 151.284C174.205 152.125 173.045 153.352 172.205 154.966C171.386 156.557 170.966 158.477 170.943 160.727ZM240.003 192.023C234.616 192.023 229.98 190.932 226.094 188.75C222.23 186.545 219.253 183.432 217.162 179.409C215.071 175.364 214.026 170.58 214.026 165.057C214.026 159.67 215.071 154.943 217.162 150.875C219.253 146.807 222.196 143.636 225.991 141.364C229.81 139.091 234.287 137.955 239.423 137.955C242.878 137.955 246.094 138.511 249.071 139.625C252.071 140.716 254.685 142.364 256.912 144.568C259.162 146.773 260.912 149.545 262.162 152.886C263.412 156.205 264.037 160.091 264.037 164.545V168.534H219.821V159.534H250.366C250.366 157.443 249.912 155.591 249.003 153.977C248.094 152.364 246.832 151.102 245.219 150.193C243.628 149.261 241.776 148.795 239.662 148.795C237.457 148.795 235.503 149.307 233.798 150.33C232.116 151.33 230.798 152.682 229.844 154.386C228.889 156.068 228.401 157.943 228.378 160.011V168.568C228.378 171.159 228.855 173.398 229.81 175.284C230.787 177.17 232.162 178.625 233.935 179.648C235.707 180.67 237.81 181.182 240.241 181.182C241.855 181.182 243.332 180.955 244.673 180.5C246.014 180.045 247.162 179.364 248.116 178.455C249.071 177.545 249.798 176.432 250.298 175.114L263.73 176C263.048 179.227 261.651 182.045 259.537 184.455C257.446 186.841 254.741 188.705 251.423 190.045C248.128 191.364 244.321 192.023 240.003 192.023ZM301.366 138.636V149.545H269.832V138.636H301.366ZM276.991 126.091H291.514V174.909C291.514 176.25 291.719 177.295 292.128 178.045C292.537 178.773 293.105 179.284 293.832 179.58C294.582 179.875 295.446 180.023 296.423 180.023C297.105 180.023 297.787 179.966 298.469 179.852C299.151 179.716 299.673 179.614 300.037 179.545L302.321 190.352C301.594 190.58 300.571 190.841 299.253 191.136C297.935 191.455 296.332 191.648 294.446 191.716C290.946 191.852 287.878 191.386 285.241 190.318C282.628 189.25 280.594 187.591 279.139 185.341C277.685 183.091 276.969 180.25 276.991 176.818V126.091Z" fill="white"/>
</g>
<defs>
<filter id="filter0_d_1_6" x="18.0682" y="121.182" width="288.253" height="84.8409" filterUnits="userSpaceOnUse" color-interpolation-filters="sRGB">
<feFlood flood-opacity="0" result="BackgroundImageFix"/>
<feColorMatrix in="SourceAlpha" type="matrix" values="0 0 0 0 0 0 0 0 0 0 0 0 0 0 0 0 0 0 127 0" result="hardAlpha"/>
<feOffset dy="10"/>
<feGaussianBlur stdDeviation="2"/>
<feComposite in2="hardAlpha" operator="out"/>
<feColorMatrix type="matrix" values="0 0 0 0 0 0 0 0 0 0 0 0 0 0 0 0 0 0 0.25 0"/>
<feBlend mode="normal" in2="BackgroundImageFix" result="effect1_dropShadow_1_6"/>
<feBlend mode="normal" in="SourceGraphic" in2="effect1_dropShadow_1_6" result="shape"/>
</filter>
</defs>
</svg>
